<svg width="32px" height="32px" viewBox="0 0 32 32" version="1.1" xmlns="http://www.w3.org/2000/svg">
									<title>LinkedIn icon</title>
									<g stroke="none" stroke-width="1" fill="none" fill-rule="evenodd">
										<g id="LinkedIn">
											<rect id="Rectangle-7" fill="#0070AD" x="0" y="0" width="32" height="32" rx="2.13333333"></rect>
											<path d="M20.4822123,12.4050699 L20.6933538,12.4096489 C22.2071139,12.4754634 24.4272139,13.2861468 24.5296556,17.1020282 L24.5333333,17.3797325 L24.5333333,23.4871474 L20.8249255,23.4871474 L20.8249255,17.6196204 C20.8249255,16.417032 20.4822123,15.2122208 19.0884135,15.2122208 C17.7526897,15.2122208 17.1616898,16.3187228 17.1147588,17.4952956 L17.1117063,17.6490738 L17.1117063,23.4871474 L13.3927506,23.4871474 L13.3927506,12.7436915 L17.1117063,12.7436915 L17.1117063,14.1900578 C18.0902522,12.926525 18.9405583,12.4050699 20.4822123,12.4050699 Z M11.0568978,12.4050699 L11.0568978,23.1913055 L7.46666667,23.1913055 L7.46666667,12.4050699 L11.0568978,12.4050699 Z M9.5026852,7.46666667 C10.7305132,7.46666667 11.4920773,8.27485723 11.5076195,9.33172181 C11.5076195,10.3108758 10.7995536,11.1200939 9.64025666,11.1916361 L9.45605882,11.196777 C8.24377298,11.196777 7.46666667,10.3575021 7.46666667,9.33172181 C7.46666667,8.27485723 8.27485723,7.46666667 9.5026852,7.46666667 Z" id="Shape" fill="#FFFFFF"></path>
										</g>
									</g>
								</svg>