<svg width="32px" height="32px" viewBox="0 0 32 32" version="1.1" xmlns="http://www.w3.org/2000/svg">
									<title>Twitter icon</title>
									<g stroke="none" stroke-width="1" fill="none" fill-rule="evenodd">
										<g id="Twitter">
											<rect id="Rectangle-7" fill="#46ADE9" x="0" y="0" width="32" height="32" rx="2.13333333"></rect>
											<path d="M7.46666667,21.2574713 C9.11111933,22.3379364 10.8999903,22.8781609 12.8333333,22.8781609 C14.077784,22.8781609 15.244439,22.67414 16.3333333,22.266092 C17.4222277,21.8580439 18.3555517,21.3120724 19.1333333,20.6281609 C19.911115,19.9442495 20.5805528,19.156901 21.1416667,18.266092 C21.7027806,17.3752829 22.1194431,16.4442577 22.3916667,15.4729885 C22.6638903,14.5017193 22.8,13.5333382 22.8,12.5678161 C22.8,12.3609185 22.7944445,12.2057476 22.7833333,12.1022989 C23.4833368,11.5850549 24.0666643,10.9586244 24.5333333,10.2229885 C23.911108,10.5103463 23.2388925,10.7057466 22.5166667,10.8091954 C23.272226,10.349423 23.7888875,9.67701592 24.0666667,8.79195402 C23.3444408,9.22873782 22.6000038,9.52183833 21.8333333,9.67126437 C21.1555522,8.91263989 20.3055607,8.53333333 19.2833333,8.53333333 C18.3166618,8.53333333 17.4916701,8.88677807 16.8083333,9.59367816 C16.1249966,10.3005782 15.7833333,11.154018 15.7833333,12.154023 C15.7833333,12.487358 15.8111108,12.7632173 15.8666667,12.9816092 C14.4333262,12.901149 13.0888952,12.5275895 11.8333333,11.8609195 C10.5777715,11.1942495 9.5111155,10.3034539 8.63333333,9.18850575 C8.3111095,9.76322126 8.15,10.3724106 8.15,11.016092 C8.15,12.3264433 8.6555505,13.3321804 9.66666667,14.0333333 C9.14444183,14.021839 8.58889183,13.8724152 8,13.5850575 L8,13.6195402 C8,14.4816135 8.277775,15.2488472 8.83333333,15.9212644 C9.38889167,16.5936815 10.0722182,17.010344 10.8833333,17.1712644 C10.5611095,17.2632189 10.277779,17.3091954 10.0333333,17.3091954 C9.88888817,17.3091954 9.67222367,17.2862071 9.38333333,17.2402299 C9.61666783,17.9643714 10.0305526,18.5620666 10.625,19.0333333 C11.2194474,19.5046001 11.8944407,19.745977 12.65,19.7574713 C11.3611047,20.7919592 9.91111917,21.3091954 8.3,21.3091954 C8.01110967,21.3091954 7.73333467,21.2919542 7.46666667,21.2574713 L7.46666667,21.2574713 Z" id="Path" fill="#FFFFFF"></path>
										</g>
									</g>
								</svg>