<svg width="32px" height="32px" viewBox="0 0 32 32" version="1.1" xmlns="http://www.w3.org/2000/svg">
									<title>Youtube icon</title>
									<g stroke="none" stroke-width="1" fill="none" fill-rule="evenodd">
										<g id="Youtube">
											<rect id="Rectangle-7" fill="#DC4E41" x="0" y="0" width="32" height="32" rx="2.13333333"></rect>
											<path d="M15.9996879,21.6003604 C19.5902719,21.6003604 21.9712958,21.4194026 21.9712958,21.4194026 C22.3046392,21.3813062 23.0379945,21.3813062 23.685633,20.7050954 C23.685633,20.7050954 24.2094583,20.1812702 24.3618438,19.0098064 C24.5201819,17.8014368 24.5326823,16.5930672 24.5333333,16.3098555 L24.5333333,14.8905049 C24.5326823,14.6072932 24.5201819,13.3989236 24.3618438,12.190554 C24.2094583,11.0095661 23.685633,10.495265 23.685633,10.495265 C23.0379945,9.8095301 22.3046392,9.8095301 21.9712958,9.77143372 C21.9712958,9.77143372 19.5902719,9.6 15.9996879,9.6 C12.4091039,9.6 10.02808,9.77143372 10.02808,9.77143372 C9.69473664,9.8095301 8.96138128,9.8095301 8.31374278,10.495265 C8.31374278,10.495265 7.78991753,11.0095661 7.637532,12.190554 C7.49427373,13.2838408 7.47039735,14.3771276 7.46666667,14.7852121 L7.46666667,16.4151483 C7.47039735,16.8232328 7.49427373,17.9165196 7.637532,19.0098064 C7.78991753,20.1812702 8.31374278,20.7050954 8.31374278,20.7050954 C8.96138128,21.3813062 9.81854988,21.362258 10.1995137,21.4289267 C10.1995137,21.4289267 11.5614594,21.562264 15.9996879,21.6003604 Z M14.2377302,17.8097704 L14.2377302,13.0191503 L18.8473925,15.4287465 L14.2377302,17.8097704 Z" id="" fill="#FFFFFF"></path>
										</g>
									</g>
								</svg>